<svg width="17" height="16" viewBox="0 0 17 16" fill="none" xmlns="http://www.w3.org/2000/svg">
<path d="M8.97998 3.08133C10.582 3.08133 10.772 3.08733 11.4046 3.116C11.9893 3.14267 12.3073 3.24067 12.5186 3.32267C12.7986 3.43133 12.9986 3.56133 13.2086 3.77133C13.4186 3.98133 13.5486 4.18133 13.6573 4.46133C13.7393 4.67267 13.8373 4.99067 13.864 5.57533C13.8926 6.208 13.8986 6.398 13.8986 8C13.8986 9.602 13.8926 9.792 13.864 10.4247C13.8373 11.0093 13.7393 11.3273 13.6573 11.5387C13.5486 11.8187 13.4186 12.0187 13.2086 12.2287C12.9986 12.4387 12.7986 12.5687 12.5186 12.6773C12.3073 12.7593 11.9893 12.8573 11.4046 12.884C10.772 12.9127 10.5826 12.9187 8.97998 12.9187C7.37731 12.9187 7.18798 12.9127 6.55531 12.884C5.97065 12.8573 5.65265 12.7593 5.44131 12.6773C5.16131 12.5687 4.96131 12.4387 4.75131 12.2287C4.54131 12.0187 4.41131 11.8187 4.30265 11.5387C4.22065 11.3273 4.12265 11.0093 4.09598 10.4247C4.06731 9.792 4.06131 9.602 4.06131 8C4.06131 6.398 4.06731 6.208 4.09598 5.57533C4.12265 4.99067 4.22065 4.67267 4.30265 4.46133C4.41131 4.18133 4.54131 3.98133 4.75131 3.77133C4.96131 3.56133 5.16131 3.43133 5.44131 3.32267C5.65265 3.24067 5.97065 3.14267 6.55531 3.116C7.18798 3.08733 7.37798 3.08133 8.97998 3.08133ZM8.97998 2C7.35065 2 7.14598 2.00667 6.50598 2.036C5.86731 2.06533 5.43131 2.16667 5.04998 2.31467C4.65531 2.468 4.32065 2.67333 3.98731 3.00733C3.65398 3.34067 3.44865 3.67533 3.29531 4.07C3.14665 4.45133 3.04531 4.88733 3.01598 5.526C2.98665 6.166 2.97998 6.37067 2.97998 8C2.97998 9.62933 2.98665 9.834 3.01598 10.474C3.04531 11.1127 3.14665 11.5487 3.29465 11.9307C3.44798 12.3253 3.65331 12.66 3.98665 12.9933C4.31998 13.3267 4.65465 13.532 5.04931 13.6853C5.43065 13.8333 5.86731 13.9353 6.50598 13.964C7.14598 13.9933 7.35065 14 8.97998 14C10.6093 14 10.814 13.9933 11.454 13.964C12.0926 13.9347 12.5286 13.8333 12.9106 13.6853C13.3053 13.532 13.64 13.3267 13.9733 12.9933C14.3066 12.66 14.512 12.3253 14.6653 11.9307C14.8133 11.5493 14.9153 11.1127 14.944 10.474C14.9733 9.834 14.98 9.62933 14.98 8C14.98 6.37067 14.9733 6.166 14.944 5.526C14.9146 4.88733 14.8133 4.45133 14.6653 4.06933C14.512 3.67467 14.3066 3.34 13.9733 3.00667C13.64 2.67333 13.3053 2.468 12.9106 2.31467C12.5293 2.16667 12.0926 2.06467 11.454 2.036C10.814 2.00667 10.6093 2 8.97998 2ZM8.97998 4.91867C7.27865 4.91867 5.89865 6.298 5.89865 8C5.89865 9.702 7.27865 11.0813 8.97998 11.0813C10.6813 11.0813 12.0613 9.702 12.0613 8C12.0613 6.298 10.6813 4.91867 8.97998 4.91867ZM8.97998 10C7.87531 10 6.97998 9.10467 6.97998 8C6.97998 6.89533 7.87531 6 8.97998 6C10.0846 6 10.98 6.89533 10.98 8C10.98 9.10467 10.0846 10 8.97998 10ZM12.1826 4.07733C11.7853 4.07733 11.4626 4.4 11.4626 4.79733C11.4626 5.19467 11.7853 5.51733 12.1826 5.51733C12.58 5.51733 12.9026 5.19467 12.9026 4.79733C12.9026 4.4 12.5806 4.07733 12.1826 4.07733Z" fill="black"/>
</svg>
